<svg xmlns="http://www.w3.org/2000/svg" width="662" height="302" style="
        width:662px;
        height:302px;
        background: white;
        fill: none;
">
        <svg xmlns="http://www.w3.org/2000/svg"><g><defs><pattern id=".12266702260392348" width="28" height="28" patternUnits="userSpaceOnUse"><path d="M 28 0 L 0 0 0 28" fill="none" stroke="lightgray" stroke-width="0.5"/></pattern></defs><rect width="100%" height="100%" fill="url(#.12266702260392348)" stroke="lightgray" stroke-width="0.5"/></g></svg>
        <svg xmlns="http://www.w3.org/2000/svg"><style>
                    .frame-rect,.add-label{
                        cursor: pointer;
                    }                    
                    </style><g class="shapes-region" style="stroke: black; fill: none;"><g class="arrow-line"><path class="connection real" stroke-dasharray="" d="  M224,140 L224,28" style="stroke: rgb(245, 58, 58); stroke-width: 2;"/><g class="svg-line-part" stroke="rgba(245,58,58,1)" transform="rotate(450 224 28) translate(224 28)" style="stroke: rgb(245, 58, 58);"><path d=" M0,0 Q4.96,-0.45 10.93,-3.29 M0,0 Q4.96,0.45 10.93,3.29"/></g></g><g class="composite-shape"><ellipse cx="420.43333333333334" cy="84.39999999999998" rx="5" ry="5" class="real" style="stroke-width: 1; stroke: rgb(0, 0, 0); fill: rgb(255, 255, 255);"/><path class="real" d=" M415.43,84.4 L425.43,84.4 M420.43,79.4 L420.43,89.4" style="stroke-width: 1; stroke: rgb(0, 0, 0); fill: rgb(255, 255, 255);"/></g><g class="arrow-line"><path class="connection real" stroke-dasharray="" d="  M224,140 L420,84" style="stroke: rgb(144, 19, 254); stroke-width: 2;"/><g class="svg-line-part" stroke="rgba(144,19,254,1)" transform="rotate(524.05 420 84) translate(420 84)" style="stroke: rgb(144, 19, 254);"><path d=" M0,0 Q4.96,-0.45 10.93,-3.29 M0,0 Q4.96,0.45 10.93,3.29"/></g></g><g class="composite-shape axis2d" style="stroke-width: 2; stroke: rgb(0, 0, 0);"><path class="real" d=" M16,281 L581,281 M27,36 L27,290"/><path d=" M574,276 L581,281 L574,286"/><path d=" M22,43 L27,36 L32,43"/></g><g class="composite-shape"><path class="real" d=" M208.97,128.93 L241.49,142.17 L208.97,155.42 L221.33,142.17 Z" style="stroke-width: 2; stroke: rgb(0, 0, 0); fill: rgb(255, 255, 255); transform: rotate(268.08deg); transform-origin: 225.232px 142.172px 0px;"/></g><g class="intersections-group"><g style="stroke: rgb(0, 0, 0); stroke-width: 1; fill: none;"/></g></g><g/><g/><!-- react-empty: 43433 --></svg>
        <svg xmlns="http://www.w3.org/2000/svg" width="660" height="300" style="width:660px;height:300px;font-family:Asana-Math, Asana;background:white;"><g transform="rotate(-14 323 129)"><g><text x="315" y="121" style="white-space:pre;stroke:none;fill:rgb(144, 19, 254);font-size:13.5px;font-family:Arial, Helvetica, sans-serif;font-weight:400;dominant-baseline:text-before-edge;text-decoration:none;">dir</text></g></g><g transform=""><g><text x="230" y="160" style="white-space:pre;stroke:none;fill:rgb(74, 74, 74);font-size:13.5px;font-family:Arial, Helvetica, sans-serif;font-weight:400;dominant-baseline:text-before-edge;text-decoration:none;">vehicle</text></g></g><g transform=""><g><text x="401.5" y="104" style="white-space:pre;stroke:none;fill:rgb(74, 74, 74);font-size:13.5px;font-family:Arial, Helvetica, sans-serif;font-weight:400;dominant-baseline:text-before-edge;text-decoration:none;">target</text></g></g><g transform=""><g><text x="228.5" y="48" style="white-space:pre;stroke:none;fill:rgb(219, 76, 76);font-size:13.5px;font-family:Arial, Helvetica, sans-serif;font-weight:400;dominant-baseline:text-before-edge;text-decoration:none;">velocity</text></g></g></svg>
</svg>
