<svg xmlns="http://www.w3.org/2000/svg" width="662" height="302" style="
        width:662px;
        height:302px;
        background: white;
        fill: none;
">
        <svg xmlns="http://www.w3.org/2000/svg"><g><defs><pattern id=".7893675784421691" width="20" height="20" patternUnits="userSpaceOnUse"><path d="M 20 0 L 0 0 0 20" fill="none" stroke="lightgray" stroke-width="0.5"/></pattern></defs><rect width="100%" height="100%" fill="url(#.7893675784421691)" stroke="lightgray" stroke-width="0.5"/></g></svg>
        <svg xmlns="http://www.w3.org/2000/svg"><style>
                    .frame-rect,.add-label{
                        cursor: pointer;
                    }                    
                    </style><g class="shapes-region" style="stroke: black; fill: none;"><g class="arrow-line"><path class="connection real" stroke-dasharray="" d="  M160,260 L260,240" style="stroke: rgb(74, 144, 226); stroke-width: 1;"/><g class="svg-line-part" stroke="rgba(74,144,226,1)" transform="rotate(528.69 260 240) translate(260 240)" style="stroke: rgb(74, 144, 226);"><path d=" M0,0 Q4.96,-0.45 10.93,-3.29 M0,0 Q4.96,0.45 10.93,3.29"/></g></g><g class="arrow-line"><path class="connection real" stroke-dasharray="" d="  M260,240 L320,60" style="stroke: rgb(189, 16, 224); stroke-width: 1;"/><g class="svg-line-part" stroke="rgba(189,16,224,1)" transform="rotate(468.43 320 60) translate(320 60)" style="stroke: rgb(189, 16, 224);"><path d=" M0,0 Q4.96,-0.45 10.93,-3.29 M0,0 Q4.96,0.45 10.93,3.29"/></g></g><g class="arrow-line"><path class="connection real" stroke-dasharray="" d="  M320,240 L320,60" style="stroke: rgb(65, 117, 5); stroke-width: 1;"/><g class="svg-line-part" stroke="rgba(65,117,5,1)" transform="rotate(450 320 60) translate(320 60)" style="stroke: rgb(65, 117, 5);"><path d=" M0,0 Q4.96,-0.45 10.93,-3.29 M0,0 Q4.96,0.45 10.93,3.29"/></g></g><g class="arrow-line"><path class="connection real" stroke-dasharray="" d="  M260,260 L320,260" style="stroke: rgb(208, 2, 27); stroke-width: 1;"/><g class="svg-line-part" stroke="rgba(208,2,27,1)" transform="rotate(180 320 260) translate(320 260)" style="stroke: rgb(208, 2, 27);"><path d=" M0,0 Q4.96,-0.45 10.93,-3.29 M0,0 Q4.96,0.45 10.93,3.29"/></g></g><g class="arrow-line"><path class="connection real" stroke-dasharray="" d="  M320,260 L320,240" style="stroke: rgb(65, 117, 5); stroke-width: 1;"/><g class="svg-line-part" stroke="rgba(65,117,5,1)" transform="rotate(450 320 240) translate(320 240)" style="stroke: rgb(65, 117, 5);"><path d=" M0,0 Q4.96,-0.45 10.93,-3.29 M0,0 Q4.96,0.45 10.93,3.29"/></g></g><g class="arrow-line"><path class="connection real" stroke-dasharray="" d="  M160,260 L260,260" style="stroke: rgb(208, 2, 27); stroke-width: 1;"/><g class="svg-line-part" stroke="rgba(208,2,27,1)" transform="rotate(180 260 260) translate(260 260)" style="stroke: rgb(208, 2, 27);"><path d=" M0,0 Q4.96,-0.45 10.93,-3.29 M0,0 Q4.96,0.45 10.93,3.29"/></g></g><g class="intersections-group"><g style="stroke: rgb(0, 0, 0); stroke-width: 1; fill: none;"/></g></g><g/><g/><!-- react-empty: 2228 --></svg>
        <svg xmlns="http://www.w3.org/2000/svg" width="660" height="300" style="width:660px;height:300px;font-family:Asana-Math, Asana;background:white;"></svg>
</svg>
