<svg xmlns="http://www.w3.org/2000/svg" width="662" height="302" style="
        width:662px;
        height:302px;
        background: white;
        fill: none;
">
        <svg xmlns="http://www.w3.org/2000/svg"><g><defs><pattern id=".7893675784421691" width="20" height="20" patternUnits="userSpaceOnUse"><path d="M 20 0 L 0 0 0 20" fill="none" stroke="lightgray" stroke-width="0.5"/></pattern></defs><rect width="100%" height="100%" fill="url(#.7893675784421691)" stroke="lightgray" stroke-width="0.5"/></g></svg>
        <svg xmlns="http://www.w3.org/2000/svg"><style>
                    .frame-rect,.add-label{
                        cursor: pointer;
                    }                    
                    </style><g class="shapes-region" style="stroke: black; fill: none;"><g class="arrow-line"><path class="connection real" stroke-dasharray="" d="  M360,100 L460,80" style="stroke: rgb(74, 144, 226); stroke-width: 1;"/><g class="svg-line-part" stroke="rgba(74,144,226,1)" transform="rotate(528.69 460 80) translate(460 80)" style="stroke: rgb(74, 144, 226);"><path d=" M0,0 Q4.96,-0.45 10.93,-3.29 M0,0 Q4.96,0.45 10.93,3.29"/></g></g><g class="arrow-line"><path class="connection real" stroke-dasharray="" d="  M400,260 L460,80" style="stroke: rgb(189, 16, 224); stroke-width: 1;"/><g class="svg-line-part" stroke="rgba(189,16,224,1)" transform="rotate(288.43 400 260) translate(400 260)" style="stroke: rgb(189, 16, 224);"><path d=" M0,0 Q4.96,-0.45 10.93,-3.29 M0,0 Q4.96,0.45 10.93,3.29"/></g></g><g class="arrow-line"><path class="connection real" stroke-dasharray="" d="  M360,100 L400,260" style="stroke: rgb(245, 166, 35); stroke-width: 1;"/><g class="svg-line-part" stroke="rgba(245,166,35,1)" transform="rotate(255.95999999999998 400 260) translate(400 260)" style="stroke: rgb(245, 166, 35);"><path d=" M0,0 Q4.96,-0.45 10.93,-3.29 M0,0 Q4.96,0.45 10.93,3.29"/></g></g><g class="arrow-line"><path class="connection real" stroke-dasharray="" d="  M60,60 L160,40" style="stroke: rgb(74, 144, 226); stroke-width: 1;"/><g class="svg-line-part" stroke="rgba(74,144,226,1)" transform="rotate(528.69 160 40) translate(160 40)" style="stroke: rgb(74, 144, 226);"><path d=" M0,0 Q4.96,-0.45 10.93,-3.29 M0,0 Q4.96,0.45 10.93,3.29"/></g></g><g class="arrow-line"><path class="connection real" stroke-dasharray="" d="  M62,279 L120,100" style="stroke: rgb(189, 16, 224); stroke-width: 1;"/><g class="svg-line-part" stroke="rgba(189,16,224,1)" transform="rotate(467.95 120 100) translate(120 100)" style="stroke: rgb(189, 16, 224);"><path d=" M0,0 Q4.96,-0.45 10.93,-3.29 M0,0 Q4.96,0.45 10.93,3.29"/></g></g><g class="intersections-group"><g style="stroke: rgb(0, 0, 0); stroke-width: 1; fill: none;"/></g></g><g/><g/><!-- react-empty: 2228 --></svg>
        <svg xmlns="http://www.w3.org/2000/svg" width="660" height="300" style="width:660px;height:300px;font-family:Asana-Math, Asana;background:white;"></svg>
</svg>
