<svg xmlns="http://www.w3.org/2000/svg" width="662" height="302" style="
        width:662px;
        height:302px;
        background: white;
        fill: none;
">
        <svg xmlns="http://www.w3.org/2000/svg"><g><defs><pattern id=".7893675784421691" width="20" height="20" patternUnits="userSpaceOnUse"><path d="M 20 0 L 0 0 0 20" fill="none" stroke="lightgray" stroke-width="0.5"/></pattern></defs><rect width="100%" height="100%" fill="url(#.7893675784421691)" stroke="lightgray" stroke-width="0.5"/></g></svg>
        <svg xmlns="http://www.w3.org/2000/svg"><style>
                    .frame-rect,.add-label{
                        cursor: pointer;
                    }                    
                    </style><g class="shapes-region" style="stroke: black; fill: none;"><g class="arrow-line"><path class="connection real" stroke-dasharray="" d="  M39,261 L139,241" style="stroke: rgb(74, 144, 226); stroke-width: 1;"/><g class="svg-line-part" stroke="rgba(74,144,226,1)" transform="rotate(528.69 139 241) translate(139 241)" style="stroke: rgb(74, 144, 226);"><path d=" M0,0 Q4.96,-0.45 10.93,-3.29 M0,0 Q4.96,0.45 10.93,3.29"/></g></g><g class="arrow-line"><path class="connection real" stroke-dasharray="" d="  M139,241 L199,61" style="stroke: rgb(189, 16, 224); stroke-width: 1;"/><g class="svg-line-part" stroke="rgba(189,16,224,1)" transform="rotate(468.43 199 61) translate(199 61)" style="stroke: rgb(189, 16, 224);"><path d=" M0,0 Q4.96,-0.45 10.93,-3.29 M0,0 Q4.96,0.45 10.93,3.29"/></g></g><g class="arrow-line"><path class="connection real" stroke-dasharray="" d="  M39,261 L199,61" style="stroke: rgb(245, 166, 35); stroke-width: 1;"/><g class="svg-line-part" stroke="rgba(245,166,35,1)" transform="rotate(488.66 199 61) translate(199 61)" style="stroke: rgb(245, 166, 35);"><path d=" M0,0 Q4.96,-0.45 10.93,-3.29 M0,0 Q4.96,0.45 10.93,3.29"/></g></g><g class="arrow-line"><path class="connection real" stroke-dasharray="" d="  M520,180 L620,140" style="stroke: rgb(74, 144, 226); stroke-width: 1;"/><g class="svg-line-part" stroke="rgba(74,144,226,1)" transform="rotate(518.2 620 140) translate(620 140)" style="stroke: rgb(74, 144, 226);"><path d=" M0,0 Q4.96,-0.45 10.93,-3.29 M0,0 Q4.96,0.45 10.93,3.29"/></g></g><g class="arrow-line"><path class="connection real" stroke-dasharray="" d="  M620,140 L500,240" style="stroke: rgb(189, 16, 224); stroke-width: 1;"/><g class="svg-line-part" stroke="rgba(189,16,224,1)" transform="rotate(320.19 500 240) translate(500 240)" style="stroke: rgb(189, 16, 224);"><path d=" M0,0 Q4.96,-0.45 10.93,-3.29 M0,0 Q4.96,0.45 10.93,3.29"/></g></g><g class="arrow-line"><path class="connection real" stroke-dasharray="" d="  M520,180 L500,240" style="stroke: rgb(245, 166, 35); stroke-width: 1;"/><g class="svg-line-part" stroke="rgba(245,166,35,1)" transform="rotate(288.43 500 240) translate(500 240)" style="stroke: rgb(245, 166, 35);"><path d=" M0,0 Q4.96,-0.45 10.93,-3.29 M0,0 Q4.96,0.45 10.93,3.29"/></g></g><g class="arrow-line"><path class="connection real" stroke-dasharray="" d="  M280,200 L340,180" style="stroke: rgb(74, 144, 226); stroke-width: 1;"/><g class="svg-line-part" stroke="rgba(74,144,226,1)" transform="rotate(521.5699999999999 340 180) translate(340 180)" style="stroke: rgb(74, 144, 226);"><path d=" M0,0 Q4.96,-0.45 10.93,-3.29 M0,0 Q4.96,0.45 10.93,3.29"/></g></g><g class="arrow-line"><path class="connection real" stroke-dasharray="" d="  M340,180 L400,200" style="stroke: rgb(189, 16, 224); stroke-width: 1;"/><g class="svg-line-part" stroke="rgba(189,16,224,1)" transform="rotate(198.43 400 200) translate(400 200)" style="stroke: rgb(189, 16, 224);"><path d=" M0,0 Q4.96,-0.45 10.93,-3.29 M0,0 Q4.96,0.45 10.93,3.29"/></g></g><g class="arrow-line"><path class="connection real" stroke-dasharray="" d="  M280,200 L400,200" style="stroke: rgb(245, 166, 35); stroke-width: 1;"/><g class="svg-line-part" stroke="rgba(245,166,35,1)" transform="rotate(180 400 200) translate(400 200)" style="stroke: rgb(245, 166, 35);"><path d=" M0,0 Q4.96,-0.45 10.93,-3.29 M0,0 Q4.96,0.45 10.93,3.29"/></g></g><g class="intersections-group"><g style="stroke: rgb(0, 0, 0); stroke-width: 1; fill: none;"/></g></g><g/><g/><!-- react-empty: 2228 --></svg>
        <svg xmlns="http://www.w3.org/2000/svg" width="660" height="300" style="width:660px;height:300px;font-family:Asana-Math, Asana;background:white;"><g transform=""><g><text x="92.5" y="251" style="white-space:pre;stroke:none;fill:rgb(74, 144, 226);font-size:15px;font-family:Arial, Helvetica, sans-serif;font-weight:400;dominant-baseline:text-before-edge;text-decoration:none;">v1</text></g></g><g transform=""><g><text x="172.5" y="191" style="white-space:pre;stroke:none;fill:rgb(189, 16, 224);font-size:15px;font-family:Arial, Helvetica, sans-serif;font-weight:400;dominant-baseline:text-before-edge;text-decoration:none;">v2</text></g></g><g transform=""><g><text x="150" y="32" style="white-space:pre;stroke:none;fill:rgb(245, 166, 35);font-size:15px;font-family:Arial, Helvetica, sans-serif;font-weight:400;dominant-baseline:text-before-edge;text-decoration:none;">v3 </text><text x="169" y="32" style="white-space:pre;stroke:none;fill:rgb(74, 74, 74);font-size:15px;font-family:Arial, Helvetica, sans-serif;font-weight:400;dominant-baseline:text-before-edge;text-decoration:none;">= Summe aus</text><text x="262" y="32" style="white-space:pre;stroke:none;fill:rgb(245, 166, 35);font-size:15px;font-family:Arial, Helvetica, sans-serif;font-weight:400;dominant-baseline:text-before-edge;text-decoration:none;"> </text><text x="266" y="32" style="white-space:pre;stroke:none;fill:rgb(74, 144, 226);font-size:15px;font-family:Arial, Helvetica, sans-serif;font-weight:400;dominant-baseline:text-before-edge;text-decoration:none;">v1</text><text x="281" y="32" style="white-space:pre;stroke:none;fill:rgb(245, 166, 35);font-size:15px;font-family:Arial, Helvetica, sans-serif;font-weight:400;dominant-baseline:text-before-edge;text-decoration:none;"> </text><text x="285" y="32" style="white-space:pre;stroke:none;fill:rgb(74, 74, 74);font-size:15px;font-family:Arial, Helvetica, sans-serif;font-weight:400;dominant-baseline:text-before-edge;text-decoration:none;">und</text><text x="309" y="32" style="white-space:pre;stroke:none;fill:rgb(245, 166, 35);font-size:15px;font-family:Arial, Helvetica, sans-serif;font-weight:400;dominant-baseline:text-before-edge;text-decoration:none;"> </text><text x="313" y="32" style="white-space:pre;stroke:none;fill:rgb(189, 16, 224);font-size:15px;font-family:Arial, Helvetica, sans-serif;font-weight:400;dominant-baseline:text-before-edge;text-decoration:none;">v2</text></g></g></svg>
</svg>
